<?xml version="1.0" encoding="utf-8"?>
<!-- Generator: Adobe Illustrator 16.0.0, SVG Export Plug-In . SVG Version: 6.00 Build 0)  -->
<!DOCTYPE svg PUBLIC "-//W3C//DTD SVG 1.1//EN" "http://www.w3.org/Graphics/SVG/1.1/DTD/svg11.dtd">
<svg version="1.1" id="Layer_1" xmlns="http://www.w3.org/2000/svg" xmlns:xlink="http://www.w3.org/1999/xlink" x="0px" y="0px"
	 width="1024px" height="1024px" viewBox="0 0 1024 1024" enable-background="new 0 0 1024 1024" xml:space="preserve">
<rect fill="none" width="1024" height="1024"/>
<g>
	<path d="M207.282,512.008c0,168.006,136.69,304.718,304.727,304.718c168.036,0,304.747-136.712,304.747-304.718
		c0-168.026-136.711-304.738-304.747-304.738C343.972,207.27,207.282,343.982,207.282,512.008z M724.329,493.459
		c10.204,117.317-76.55,220.655-193.811,230.856c-117.284,10.257-220.668-76.573-230.832-193.777
		c-10.244-117.296,76.528-220.655,193.791-230.828C610.802,289.477,714.166,376.245,724.329,493.459z"/>
	<path d="M929.874,680.462l50.366-1.937c11.756-0.521,23.877-10.132,26.958-21.478l16.552-79.758
		c1.714-11.634-5.551-25.296-16.081-30.437l-45.387-21.979c-10.571-5.113-19.348-18.907-19.51-30.641c0,0-0.062-5.875-1.266-19.63
		c-0.367-4.764-0.367-4.764-0.367-4.764c-0.673-5.143,6.897-14.52,16.836-20.794l42.733-26.967
		c9.919-6.275,15.611-20.703,12.634-32.049l-25.267-77.38c-4.326-10.877-17.469-19.132-29.162-18.275l-50.549,3.653
		c-11.694,0.837-25.591-5.55-30.857-14.224c-5.306-8.733-16.203-38.996-10.734-49.383l23.49-44.629
		c5.47-10.407,3.162-25.702-5.103-33.997l-60.672-54.281c-9.224-7.305-24.694-7.896-34.407-1.326l-41.836,28.365
		c-9.713,6.57-24.937,7.969-33.795,3.122c-8.856-4.877-33.551-25.773-33.999-37.486l-1.979-50.394
		c-0.471-11.734-10.103-23.834-21.408-26.947l-79.753-16.59c-11.612-1.734-25.307,5.52-30.407,16.06l-21.999,45.424
		c-5.144,10.571-18.918,19.356-30.653,19.509c0,0-5.877,0.102-19.612,1.266c-4.796,0.459-4.796,0.459-4.796,0.459
		c-5.163,0.623-14.489-6.948-20.734-16.887l-26.999-42.813c-6.265-9.917-20.673-15.57-32.04-12.591l-77.407,25.284
		c-10.897,4.326-19.142,17.438-18.305,29.13l3.673,50.537c0.836,11.703-5.571,25.61-14.265,30.906
		c-8.674,5.285-38.938,16.203-49.325,10.734l-44.673-23.519c-10.408-5.438-25.734-3.153-34.04,5.102l-54.284,60.729
		c-7.265,9.183-7.836,24.671-1.265,34.374l28.387,41.844c6.591,9.693,7.979,24.896,3.122,33.793
		c-4.918,8.866-25.795,33.477-37.55,33.977l-50.407,1.958c-11.693,0.459-23.836,10.101-26.917,21.416L0.246,446.729
		c-1.694,11.611,5.551,25.304,16.102,30.406l45.427,21.989c10.551,5.11,19.326,18.895,19.469,30.639c0,0,0.103,5.918,1.286,19.632
		c0.449,4.785,0.449,4.785,0.449,4.785c0.633,5.153-6.959,14.498-16.877,20.773l-42.774,26.987
		c-9.959,6.245-15.612,20.651-12.612,32.019l25.244,77.338c4.347,10.918,17.449,19.152,29.163,18.295l50.468-3.662
		c11.734-0.857,25.611,5.562,30.897,14.243c5.286,8.674,16.183,38.977,10.734,49.364l-23.489,44.628
		c-5.429,10.388-3.184,25.712,5.102,34.038l60.733,54.321c9.225,7.285,24.693,7.836,34.407,1.267l41.794-28.346
		c9.755-6.622,24.938-8.021,33.816-3.101c8.857,4.877,33.489,25.762,33.979,37.486l1.959,50.402
		c0.49,11.704,10.082,23.857,21.428,26.957l79.733,16.56c11.612,1.714,25.285-5.538,30.427-16.089l22.041-45.426
		c5.122-10.539,18.919-19.345,30.651-19.507c0,0,5.878-0.083,19.633-1.227c4.734-0.407,4.734-0.407,4.734-0.407
		c5.184-0.694,14.51,6.878,20.756,16.826l26.998,42.78c6.246,9.959,20.652,15.653,32.021,12.664l77.405-25.296
		c10.918-4.326,19.142-17.436,18.285-29.139l-3.633-50.549c-0.856-11.691,5.571-25.577,14.245-30.895
		c8.693-5.285,38.979-16.16,49.346-10.713l44.672,23.469c10.388,5.468,25.693,3.161,34.021-5.104l54.283-60.708
		c7.306-9.204,7.878-24.672,1.286-34.405l-28.347-41.803c-6.592-9.713-8-24.926-3.122-33.793
		C897.264,705.553,918.16,680.902,929.874,680.462z M512.008,859.255c-191.505,0-347.256-155.804-347.256-347.247
		c0-191.494,155.751-347.255,347.256-347.255c191.463,0,347.255,155.762,347.255,347.255
		C859.264,703.451,703.472,859.255,512.008,859.255z"/>
</g>
</svg>
