<?xml version="1.0" ?><!-- Uploaded to: SVG Repo, www.svgrepo.com, Generator: SVG Repo Mixer Tools -->
<svg fill="#000000" width="800px" height="800px" viewBox="0 0 512 512" data-name="Layer 1" id="Layer_1" xmlns="http://www.w3.org/2000/svg"><title/><path d="M412.51,340.85l-.15-.13a3.8,3.8,0,0,0-.37-.33l-.26-.21-.35-.26-.33-.21-.33-.19a3,3,0,0,0-.4-.21l-.29-.14-.47-.18-.18-.07-43.48-14.5L297.48,256l68.45-68.45,43.45-14.48.18-.07.47-.18.29-.14.4-.2.33-.2a3.53,3.53,0,0,0,.32-.21,3.18,3.18,0,0,0,.37-.27l.25-.2c.13-.1.25-.22.37-.33l.15-.13L442.69,141a8,8,0,0,0,0-11.31L382.34,69.31a8,8,0,0,0-11.31,0L340.85,99.49l-.13.15-.33.36-.21.27c-.09.11-.18.23-.26.35a4,4,0,0,0-.22.34l-.18.31c-.08.14-.15.28-.22.42l-.12.27c-.07.17-.14.33-.2.5l-.06.16-14.5,43.47L256,214.52l-68.44-68.44-14.48-43.46c0-.06-.05-.11-.07-.17s-.12-.32-.18-.48-.09-.19-.14-.28a3.17,3.17,0,0,0-.21-.41c-.06-.11-.12-.22-.19-.33a3.53,3.53,0,0,0-.21-.32c-.08-.13-.17-.25-.26-.37l-.21-.25c-.1-.13-.22-.25-.33-.37l-.13-.15L141,69.31a8.48,8.48,0,0,0-1-.86l-.22-.16c-.08-.06-.17-.1-.26-.16s-.28-.17-.42-.24a7.89,7.89,0,0,0-3.5-.91h-.22l-.44,0-.33,0-.26,0a7.7,7.7,0,0,0-2,.51l-.06,0a7.66,7.66,0,0,0-1.73,1c-.29.23-.58.46-.86.73L69.31,129.66a8,8,0,0,0,0,11.31l30.18,30.18.15.13a3.8,3.8,0,0,0,.37.33l.09.09.17.12.35.26.33.21.33.19a3.84,3.84,0,0,0,.4.21l.29.14.47.18.18.07,43.48,14.5L214.52,256l-68.44,68.44-43.46,14.48-.18.07-.46.18-.31.14-.39.2-.34.2c-.1.07-.21.13-.31.21a3.18,3.18,0,0,0-.37.27l-.25.2c-.13.1-.25.22-.37.33l-.15.13L69.31,371a8,8,0,0,0,0,11.31l60.35,60.35a8,8,0,0,0,11.31,0l30.1-30.1h0l.07-.07a7.91,7.91,0,0,0,.66-.77,1.77,1.77,0,0,0,.16-.22,7.72,7.72,0,0,0,1.07-2l0-.09,14.49-43.46L256,297.48l68.44,68.44,14.48,43.46,0,.09a7.72,7.72,0,0,0,1.07,2c.05.07.1.15.16.22a7.91,7.91,0,0,0,.66.77l.07.06,0,0L371,442.69c.2.19.4.37.61.54a8,8,0,0,0,10.71-.54l60.34-60.35a8,8,0,0,0,0-11.31Zm-35.82,84.86-18.87-18.86,49-49,18.86,18.87Zm-12.91-85.13L392,350l-42,42-9.42-28.27ZM376.69,86.29l49,49-18.86,18.87-49-49ZM350,120l42,42-28.28,9.42-23.18-23.18ZM148.23,171.42,120,162l42-42,9.42,28.27ZM135.31,86.29l18.87,18.86-49,49L86.29,135.31Zm26.4,94.27,18.85-18.85,64.12,64.12-18.85,18.85Zm69.78,81.1h0l30.17-30.16h0l69.77-69.77,18.86,18.86-69.77,69.77h0L254.3,276.56l-73.73,73.73-18.86-18.86Zm-96.18,164-49-49,18.86-18.87,49,49ZM162,392l-42-42,28.28-9.42,23.18,23.18ZM286.17,267.32l64.12,64.12-18.85,18.85-64.12-64.12Z"/></svg>